<svg xmlns="http://www.w3.org/2000/svg" viewBox="0 0 296.6 132.6"><style>.st0{display:none}.st1{display:inline}.st3{fill:#1c1c53}</style><g id="Calque_1" class="st0"><g class="st1"><g transform="translate(.005 -.001)"><radialGradient id="SVGID_1_" cx="-6846.382" cy="4239.507" r="2.501" fx="-6846.382" fy="4240.718" gradientTransform="matrix(76.1378 0 0 -53.7122 521416.656 227770.188)" gradientUnits="userSpaceOnUse"><stop offset=".248" stop-color="#b2006d"/><stop offset=".504" stop-color="#1c1c53"/></radialGradient><path d="M103.6 41.1H85.5v6.7h16.9c.7 0 1.4.3 1.9.9.4.6.6 1.2.6 1.9s-.2 1.4-.6 1.9c-.4.6-1.1.9-1.9.9h-8.6c-2.4-.2-4.8.8-6.4 2.7-1.3 1.7-2 3.9-1.9 6.1v10.5h6.9v-7.8c-.1-1 .2-2.1.8-3 .8-1.2 2.2-1.9 3.7-1.8h6.8c2.5.1 4.8-1 6.4-3 1.4-1.9 2.2-4.2 2.1-6.6.1-2.4-.7-4.7-2.2-6.6-1.6-1.8-4-2.9-6.4-2.8zm11.1 31.5h7V41.1h-7v31.5zM57.8 44c-1.5 1.9-2.2 4.2-2.2 6.6 0 1.1.2 2.2.5 3.2s.7 2 1.3 2.9c-.6.9-1.1 1.8-1.4 2.9-.3 1.1-.4 2.1-.4 3.2-.1 2.4.7 4.7 2.2 6.6 1.6 1.9 4 3 6.4 2.9h18.1v-6.8H65.4c-.7 0-1.4-.3-1.8-.8-.4-.6-.7-1.2-.6-2 0-.6.1-1.1.4-1.6.2-.5.6-.9 1.1-1.1h17.9v-6.8h-17c-.7.1-1.4-.3-1.8-.8-.4-.6-.7-1.2-.6-2 0-.7.2-1.4.6-2 .4-.6 1.1-.9 1.8-.9h16.9v-6.7H64.2c-2.5.2-4.9 1.3-6.4 3.2zM187 72.5h15.2v-6.8h-14.1c-1.6 0-3-.9-3.9-2.9-.9-2-1.4-4.1-1.3-6.3-.1-2.1.4-4.2 1.3-6 .7-1.6 2.2-2.7 3.9-2.7h14.1v-6.6H187c-3.6 0-6.8 1.9-8.6 4.9-2 3.3-3 7.1-2.9 10.9-.1 3.7.9 7.4 2.9 10.6 1.8 3.1 5.1 5 8.6 4.9zm-148-39v19.3c0 2.3-2.1 3.9-5 4.1.6 0 1.3.1 1.9.3 2 .6 3.1 1.9 3.1 3.7v19.3c0 2.2 2.1 3.5 6.3 3.5h4.6v-1.8H49c-4.1 0-4.9-.7-4.9-3.5V61.2c0-2.3-2.3-4.1-5.4-4.3 3.1-.2 5.4-2 5.4-4.3V35.3c0-2.9.8-3.5 4.9-3.5h.9V30h-4.6c-4.1 0-6.3 1.3-6.3 3.5zm201.3 31.4c-2.1 0-3.8 1.7-3.8 3.8s1.7 3.8 3.8 3.8c2.1 0 3.8-1.7 3.8-3.8 0-2.1-1.7-3.8-3.8-3.8zm17.3-12.1V33.5c0-2.2-2.1-3.5-6.3-3.5h-4.6v1.8h.9c4 0 4.9.7 4.9 3.5v17.2c0 2.3 2.3 4.1 5.4 4.3-3.1.2-5.4 2-5.4 4.3v17.2c0 2.9-.7 3.5-4.9 3.5h-.9v1.8h4.6c4.1 0 6.3-1.3 6.3-3.5V60.9c0-1.8 1.2-3.1 3.1-3.7.6-.2 1.3-.3 1.9-.3-2.9-.2-5-1.8-5-4.1zm-134-5h7.1v24.8h6.9V47.8h7.1v-6.6h-21.1v6.6zm100.6 24.6h6.9V41.3h-6.9v12.1h-12.4V41.3h-6.9v31.2h6.9V60.1h12.4v12.3zM149 44.2c-1.4 1.9-2.2 4.2-2.1 6.5 0 1.1.2 2.2.5 3.2s.7 2 1.3 2.9c-.6.9-1.1 1.8-1.4 2.8-.3 1-.4 2.1-.4 3.2-.1 2.4.7 4.7 2.1 6.6 1.5 1.9 3.9 3 6.3 2.9h17.8v-6.8h-16.6c-.7 0-1.4-.3-1.8-.8-.4-.6-.7-1.2-.6-1.9 0-.6.1-1.1.4-1.6.2-.5.6-.9 1.1-1.1h17.6v-6.8h-16.6c-.7 0-1.4-.3-1.8-.8-.4-.6-.6-1.2-.6-1.9s.2-1.4.6-2c.4-.6 1.1-.9 1.8-.8h16.6v-6.6h-17.8c-2.5-.1-4.9 1-6.4 3z" fill="url(#SVGID_1_)"/></g><path class="st3" d="M143.7 4.2V.1h2.3v2.2l-2.3 1.9zM0 14.9V.1h2.2v12.7h7.1v2H0zm12.1 0V.1h9.4v2h-7.2v4.3h6.1v2h-6.1v4.4h7.2v2l-9.4.1zM32.3 2.1v4.5h6.1v2h-6.1v6.2H30V.1h9.4v2h-7.1zM47.4 15c-2.8.2-5.1-2-5.3-4.7V.1h2.2v9.7c-.1 1.7 1.2 3.1 2.9 3.2 1.7.1 3.1-1.2 3.2-2.9V.1h2.2v9.8c0 2.8-2.2 5.1-4.9 5.1h-.3zM62.1 2.1v12.7h-2.2V2.1h-4.1v-2h10.4v2h-4.1zM74.2 15c-2.8.2-5.1-2-5.3-4.7V.1h2.2v9.7c-.1 1.7 1.2 3.1 2.9 3.2s3.1-1.2 3.2-2.9V.1h2.2v9.8c0 2.8-2.2 5.1-4.9 5.1h-.3zm17.4-.1l-3.1-6.2h-2.8v6.2h-2.2V.1h5.7c2.3-.2 4.4 1.5 4.6 3.8v.5c.1 1.8-1.2 3.5-2.9 3.9l3.4 6.5h-2.7zM89 2.1h-3.3v4.6H89c1.3.1 2.4-.8 2.5-2.1.1-1.3-.8-2.4-2.1-2.5H89zm22.6 11.4c-1 1-2.4 1.5-3.8 1.4h-5.2V.1h5.2c1.4-.1 2.8.4 3.8 1.4 1.6 1.6 1.5 3.8 1.5 5.9s.1 4.5-1.5 6.1zm-1.5-10.4c-.6-.7-1.6-1-2.5-1h-2.7v10.7h2.7c.9.1 1.9-.3 2.5-1 .8-.9.8-2.4.8-4.5s0-3.3-.8-4.2zm6.7 11.8V.1h9.4v2H119v4.3h6.1v2H119v4.4h7.2v2l-9.4.1zm18.1 0V.1h2.2v12.7h7.1v2h-9.3zm14.9 0V.1h2.2v14.8h-2.2zm15.5 0l-6.8-10.4v10.4h-2.2V.1h2.1l6.8 10.4V.1h2.2v14.8h-2.1zm8.5-12.8v4.5h6.1v2h-6.1v6.2h-2.2V.1h9.4v2h-7.2zm18.5 11.3c-2.2 2.1-5.6 2.1-7.8 0-1.5-1.4-1.4-3.1-1.4-5.9s0-4.5 1.4-5.9c2.2-2.1 5.6-2.1 7.8 0 1.5 1.4 1.4 3.1 1.4 5.9s0 4.5-1.4 5.9zm-1.7-10.5c-1.2-1.2-3.2-1.2-4.4 0-.7.8-.9 1.6-.9 4.6s.1 3.8.9 4.6c1.2 1.2 3.2 1.2 4.4 0 .7-.8.9-1.6.9-4.6s-.2-3.8-.9-4.6zm14.9 12l-3.1-6.2h-2.8v6.2h-2.2V.1h5.7c2.3-.2 4.4 1.5 4.6 3.8v.5c.1 1.8-1.2 3.5-2.9 3.9l3.4 6.5h-2.7zm-2.6-12.8h-3.3v4.6h3.3c1.3.1 2.4-.8 2.5-2.1s-.8-2.4-2.1-2.5h-.4zm19.2 12.8V5l-3.4 7.2H217L213.6 5v9.9h-2.2V.1h2.2l4.3 9.2 4.2-9.2h2.2v14.8h-2.2zm14.9 0l-1-3h-5.8l-1 3h-2.4L232.2.1h1.8l5.4 14.8H237zm-3.8-11.4l-2.3 6.5h4.5l-2.2-6.5zm12.9-1.4v12.7h-2.2V2.1h-4.1v-2h10.4v2h-4.1zm6.8 12.8V.1h2.2v14.8h-2.2zm15.6.6L267 14c-.9.6-2 .9-3.1.9-1.5 0-2.9-.5-3.9-1.6-1.5-1.4-1.4-3.1-1.4-5.9s0-4.5 1.4-5.9c2.2-2.1 5.6-2.1 7.8 0 1.5 1.4 1.4 3.1 1.4 5.9 0 2.5 0 4-1 5.4l1.5 1.4-1.2 1.3zm-2.3-12.6c-1.2-1.2-3.2-1.2-4.4 0-.7.8-.9 1.6-.9 4.6s.1 3.8.9 4.6c.6.6 1.4.9 2.2.9.5 0 1.1-.2 1.5-.5l-1.6-1.6 1.2-1.2 1.4 1.4c.4-1.2.6-2.4.4-3.6.1-3 0-3.8-.7-4.6zM277.9 15c-2.8.2-5.1-2-5.3-4.7V.1h2.2v9.7c-.1 1.7 1.2 3.1 2.9 3.2 1.7.1 3.1-1.2 3.2-2.9V.1h2.2v9.8c0 2.8-2.2 5.1-4.9 5.1h-.3zm9.1-.1V.1h9.4v2h-7.2v4.3h6.1v2h-6.1v4.4h7.2v2l-9.4.1z" transform="translate(.185 96.711)"/><path class="st3" d="M0 14.9V.1h2.2v12.7h7.1v2l-9.3.1zm11.9 0V.1h9.4v2h-7.2v4.3h6.1v2h-6.1v4.4h7.2v2l-9.4.1zm28.2 0V5l-3.4 7.2H35L31.6 5v9.9h-2.2V.1h2.2l4.3 9.2L40.1.1h2.2v14.8h-2.2zm6.1 0V.1h9.4v2h-7.2v4.3h6.1v2h-6.1v4.4h7.2v2l-9.4.1zm13.1 0V.1h2.2v14.8h-2.2zm6.1 0V.1h2.2v12.7h7.1v2l-9.3.1zm12 0V.1h2.2v12.7h7.1v2l-9.3.1zm12.1 0V.1h9.4v2h-7.2v4.3h6.1v2h-6.1v4.4h7.2v2l-9.4.1zm17.6.1c-2.8.2-5.1-2-5.3-4.7V.1h2.2v9.7c-.1 1.7 1.2 3.1 2.9 3.2 1.7.1 3.1-1.2 3.2-2.9V.1h2.2v9.8c0 2.8-2.2 5.1-4.9 5.1h-.3zm17.2-.1l-3.1-6.2h-2.8v6.2h-2.2V.1h5.7c2.3-.2 4.4 1.5 4.6 3.8v.5c.1 1.8-1.2 3.5-2.9 3.9l3.4 6.5-2.7.1zm-2.6-12.8h-3.3v4.6h3.3c1.3.1 2.4-.8 2.5-2.1s-.8-2.4-2.1-2.5h-.4zm22.2 11.4c-1 1-2.4 1.5-3.8 1.4h-5.2V.1h5.2c1.4-.1 2.8.4 3.8 1.4 1.6 1.6 1.5 3.8 1.5 5.9s.1 4.5-1.5 6.1zm-1.5-10.4c-.6-.7-1.6-1.1-2.5-1h-2.7v10.7h2.7c.9.1 1.9-.3 2.5-1 .8-.9.8-2.4.8-4.5s-.1-3.3-.8-4.2zm6.5 11.8V.1h9.4v2h-7.2v4.3h6.1v2h-6.1v4.4h7.2v2l-9.4.1zm17.6 0V.1h2.2v12.7h7.1v2l-9.3.1zM175 4.2V.1h2.3v2.2L175 4.2zm5.9 10.7V.1h2.2v14.8h-2.2zm15.3 0l-6.8-10.4v10.4h-2.2V.1h2.1l6.8 10.4V.1h2.2v14.8h-2.1zm15.1 0l-6.8-10.4v10.4h-2.2V.1h2.1l6.8 10.4V.1h2.2v14.8h-2.1zm14.7-1.5c-2.2 2.1-5.6 2.1-7.8 0-1.5-1.4-1.4-3.1-1.4-5.9s0-4.5 1.4-5.9c2.2-2.1 5.6-2.1 7.8 0 1.5 1.4 1.4 3.1 1.4 5.9s.1 4.5-1.4 5.9zm-1.7-10.5c-1.2-1.2-3.2-1.2-4.4 0-.7.8-.9 1.6-.9 4.6s.1 3.8.9 4.6c1.2 1.2 3.2 1.2 4.4 0 .7-.8.9-1.6.9-4.6s-.2-3.8-.9-4.6zm11.1 12h-1.7L228.9.1h2.3l3.4 10.7L238 .1h2.4l-5 14.8zm15.2 0l-1-3h-5.8l-1 3h-2.4L245.8.1h1.8l5.4 14.8h-2.4zm-3.8-11.4l-2.3 6.5h4.5l-2.2-6.5zm12.1-1.4v12.7h-2.2V2.1h-4.1v-2H263v2h-4.1zm6.6 12.8V.1h2.2v14.8h-2.2zm14.7-1.5c-2.2 2.1-5.6 2.1-7.8 0-1.4-1.4-1.4-3.1-1.4-5.9s0-4.5 1.4-5.9c2.2-2.1 5.6-2.1 7.8 0 1.5 1.4 1.4 3.1 1.4 5.9s.1 4.5-1.4 5.9zm-1.7-10.5c-1.2-1.2-3.2-1.2-4.4 0-.7.8-.9 1.6-.9 4.6s.1 3.8.9 4.6c1.2 1.2 3.2 1.2 4.4 0 .7-.8.9-1.6.9-4.6s-.2-3.8-.9-4.6zm15.5 12l-6.8-10.4v10.4H285V.1h2l6.8 10.4V.1h2.2v14.8h-2z" transform="translate(0 117.588)"/></g></g><g id="Calque_1_-_copie"><g transform="translate(.005 -.001)"><radialGradient id="SVGID_2_" cx="-6846.382" cy="4239.507" r="2.501" fx="-6846.382" fy="4240.718" gradientTransform="matrix(76.1378 0 0 -53.7122 521416.656 227770.188)" gradientUnits="userSpaceOnUse"><stop offset=".248" stop-color="#b2006d"/><stop offset=".504" stop-color="#1c1c53"/></radialGradient><path d="M103.6 41.1H85.5v6.7h16.9c.7 0 1.4.3 1.9.9.4.6.6 1.2.6 1.9s-.2 1.4-.6 1.9c-.4.6-1.1.9-1.9.9h-8.6c-2.4-.2-4.8.8-6.4 2.7-1.3 1.7-2 3.9-1.9 6.1v10.5h6.9v-7.8c-.1-1 .2-2.1.8-3 .8-1.2 2.2-1.9 3.7-1.8h6.8c2.5.1 4.8-1 6.4-3 1.4-1.9 2.2-4.2 2.1-6.6.1-2.4-.7-4.7-2.2-6.6-1.6-1.8-4-2.9-6.4-2.8zm11.1 31.5h7V41.1h-7v31.5zM57.8 44c-1.5 1.9-2.2 4.2-2.2 6.6 0 1.1.2 2.2.5 3.2s.7 2 1.3 2.9c-.6.9-1.1 1.8-1.4 2.9-.3 1.1-.4 2.1-.4 3.2-.1 2.4.7 4.7 2.2 6.6 1.6 1.9 4 3 6.4 2.9h18.1v-6.8H65.4c-.7 0-1.4-.3-1.8-.8-.4-.6-.7-1.2-.6-2 0-.6.1-1.1.4-1.6.2-.5.6-.9 1.1-1.1h17.9v-6.8h-17c-.7.1-1.4-.3-1.8-.8-.4-.6-.7-1.2-.6-2 0-.7.2-1.4.6-2 .4-.6 1.1-.9 1.8-.9h16.9v-6.7H64.2c-2.5.2-4.9 1.3-6.4 3.2zM187 72.5h15.2v-6.8h-14.1c-1.6 0-3-.9-3.9-2.9-.9-2-1.4-4.1-1.3-6.3-.1-2.1.4-4.2 1.3-6 .7-1.6 2.2-2.7 3.9-2.7h14.1v-6.6H187c-3.6 0-6.8 1.9-8.6 4.9-2 3.3-3 7.1-2.9 10.9-.1 3.7.9 7.4 2.9 10.6 1.8 3.1 5.1 5 8.6 4.9zm-148-39v19.3c0 2.3-2.1 3.9-5 4.1.6 0 1.3.1 1.9.3 2 .6 3.1 1.9 3.1 3.7v19.3c0 2.2 2.1 3.5 6.3 3.5h4.6v-1.8H49c-4.1 0-4.9-.7-4.9-3.5V61.2c0-2.3-2.3-4.1-5.4-4.3 3.1-.2 5.4-2 5.4-4.3V35.3c0-2.9.8-3.5 4.9-3.5h.9V30h-4.6c-4.1 0-6.3 1.3-6.3 3.5zm201.3 31.4c-2.1 0-3.8 1.7-3.8 3.8s1.7 3.8 3.8 3.8c2.1 0 3.8-1.7 3.8-3.8 0-2.1-1.7-3.8-3.8-3.8zm17.3-12.1V33.5c0-2.2-2.1-3.5-6.3-3.5h-4.6v1.8h.9c4 0 4.9.7 4.9 3.5v17.2c0 2.3 2.3 4.1 5.4 4.3-3.1.2-5.4 2-5.4 4.3v17.2c0 2.9-.7 3.5-4.9 3.5h-.9v1.8h4.6c4.1 0 6.3-1.3 6.3-3.5V60.9c0-1.8 1.2-3.1 3.1-3.7.6-.2 1.3-.3 1.9-.3-2.9-.2-5-1.8-5-4.1zm-134-5h7.1v24.8h6.9V47.8h7.1v-6.6h-21.1v6.6zm100.6 24.6h6.9V41.3h-6.9v12.1h-12.4V41.3h-6.9v31.2h6.9V60.1h12.4v12.3zM149 44.2c-1.4 1.9-2.2 4.2-2.1 6.5 0 1.1.2 2.2.5 3.2s.7 2 1.3 2.9c-.6.9-1.1 1.8-1.4 2.8-.3 1-.4 2.1-.4 3.2-.1 2.4.7 4.7 2.1 6.6 1.5 1.9 3.9 3 6.3 2.9h17.8v-6.8h-16.6c-.7 0-1.4-.3-1.8-.8-.4-.6-.7-1.2-.6-1.9 0-.6.1-1.1.4-1.6.2-.5.6-.9 1.1-1.1h17.6v-6.8h-16.6c-.7 0-1.4-.3-1.8-.8-.4-.6-.6-1.2-.6-1.9s.2-1.4.6-2c.4-.6 1.1-.9 1.8-.8h16.6v-6.6h-17.8c-2.5-.1-4.9 1-6.4 3z" fill="url(#SVGID_2_)"/></g><path class="st3" d="M864.3 553.3v11.4h-2v-11.4h-3.7v-1.8h9.3v1.8h-3.6zm13.8 11.4v-5.8h-5.4v5.8h-2v-13.3h2v5.7h5.4v-5.7h2v13.3h-2zm6.1 0v-13.3h8.5v1.8h-6.5v3.9h5.5v1.8h-5.5v4h6.5v1.8h-8.5zm18.7-11.4v4h5.5v1.8h-5.5v5.6h-2v-13.3h8.5v1.8h-6.5zm14 11.5c-2.7 0-4.8-1.8-4.8-4.6v-8.8h2v8.7c0 1.8 1.1 2.9 2.7 2.9s2.8-1.1 2.8-2.9v-8.7h2v8.8c.1 2.8-2 4.6-4.7 4.6zm13.1-11.5v11.4h-2v-11.4h-3.7v-1.8h9.3v1.8H930zm11 11.5c-2.7 0-4.8-1.8-4.8-4.6v-8.8h2v8.7c0 1.8 1.1 2.9 2.7 2.9 1.7 0 2.8-1.1 2.8-2.9v-8.7h2v8.8c0 2.8-2 4.6-4.7 4.6zm15.9-.1l-2.8-5.6h-2.5v5.6h-2v-13.3h5.1c2.5 0 4.1 1.6 4.1 3.9 0 1.9-1.2 3.1-2.6 3.5l3.1 5.9h-2.4zm-2.4-11.4h-3v4.2h3c1.3 0 2.3-.8 2.3-2.1s-.9-2.1-2.3-2.1zm7.8 11.4v-13.3h8.5v1.8h-6.5v3.9h5.5v1.8h-5.5v4h6.5v1.8h-8.5zm24.5-1.3c-.9.9-2.1 1.4-3.5 1.4s-2.6-.5-3.5-1.4c-1.3-1.3-1.3-2.8-1.3-5.3 0-2.6 0-4 1.3-5.3.9-.9 2.1-1.4 3.5-1.4s2.6.5 3.5 1.4c1.3 1.3 1.3 2.8 1.3 5.3 0 2.6 0 4-1.3 5.3zm-1.5-9.4c-.5-.5-1.2-.8-2-.8s-1.5.3-2 .8c-.7.7-.8 1.5-.8 4.1s.1 3.4.8 4.1c.5.5 1.2.8 2 .8s1.5-.3 2-.8c.7-.7.8-1.5.8-4.1s-.1-3.4-.8-4.1zm8.3-.7v4h5.5v1.8h-5.5v5.6h-2v-13.3h8.5v1.8h-6.5zm18 11.5c-2 0-3.4-.5-4.7-1.8l1.3-1.3c1 1 2 1.3 3.4 1.3 1.7 0 2.7-.7 2.7-2 0-.6-.2-1.1-.5-1.4-.3-.3-.7-.4-1.5-.6l-1.6-.2c-1.1-.1-1.9-.5-2.5-1.1-.7-.6-1-1.5-1-2.5 0-2.3 1.7-3.9 4.4-3.9 1.8 0 3 .4 4.1 1.5l-1.3 1.3c-.8-.8-1.8-1-2.9-1-1.6 0-2.4.9-2.4 2.1 0 .5.1.9.5 1.2.3.3.9.5 1.5.6l1.5.2c1.2.2 1.9.5 2.5 1 .7.6 1.1 1.6 1.1 2.7.1 2.5-1.9 3.9-4.6 3.9zm15.8-1.4c-.9.9-2.1 1.4-3.5 1.4s-2.6-.5-3.5-1.4c-1.3-1.3-1.3-2.8-1.3-5.3 0-2.6 0-4 1.3-5.3.9-.9 2.1-1.4 3.5-1.4s2.6.5 3.5 1.4c1.3 1.3 1.3 2.8 1.3 5.3-.1 2.6 0 4-1.3 5.3zm-1.6-9.4c-.5-.5-1.2-.8-2-.8s-1.5.3-2 .8c-.7.7-.8 1.5-.8 4.1s.1 3.4.8 4.1c.5.5 1.2.8 2 .8s1.5-.3 2-.8c.7-.7.8-1.5.8-4.1s-.1-3.4-.8-4.1zm8.3-.7v4h5.5v1.8h-5.5v5.6h-2v-13.3h8.5v1.8h-6.5zm14 0v11.4h-2v-11.4h-3.7v-1.8h9.3v1.8h-3.6zm17.3 11.4h-1.8l-2.7-9.3-2.7 9.3h-1.8l-3.5-13.3h2.1l2.3 9.5 2.7-9.5h1.6l2.7 9.5 2.3-9.5h2.1l-3.3 13.3zm13.3 0l-.9-2.7h-5.2l-.9 2.7h-2.1l4.9-13.3h1.6l4.9 13.3h-2.3zm-3.5-10.2l-2.1 5.9h4.1l-2-5.9zm15.3 10.2l-2.8-5.6h-2.5v5.6h-2v-13.3h5.1c2.5 0 4.1 1.6 4.1 3.9 0 1.9-1.2 3.1-2.6 3.5l3.1 5.9h-2.4zm-2.3-11.4h-3v4.2h3c1.3 0 2.3-.8 2.3-2.1s-1-2.1-2.3-2.1zm7.7 11.4v-13.3h8.5v1.8h-6.5v3.9h5.5v1.8h-5.5v4h6.5v1.8h-8.5zm-231.3 10v12.2h-2.1v-12.2h-3.9v-1.9h9.9v1.9h-3.9zm14.8 12.2v-6.2h-5.7v6.2h-2.1v-14.1h2.1v6h5.7v-6h2.1v14.1h-2.1zm6.4 0v-14.1h9v1.9H888v4.1h5.9v1.9H888v4.2h6.9v1.9h-9.1zm23.6 0h-5.7v-14.1h5.5c2.6 0 4.3 1.5 4.3 3.9 0 1.5-1 2.6-1.9 3 1.1.4 2.1 1.5 2.1 3.3 0 2.5-1.8 3.9-4.3 3.9zm-.4-12.2h-3.2v4h3.2c1.4 0 2.3-.7 2.3-2s-.9-2-2.3-2zm.2 5.9h-3.4v4.3h3.4c1.5 0 2.3-.9 2.3-2.2 0-1.2-.8-2.1-2.3-2.1zm8.2 6.3v-14.1h9v1.9h-6.9v4.1h5.9v1.9h-5.9v4.2h6.9v1.9h-9zm16.3.1c-2.1 0-3.7-.5-5-1.9l1.4-1.4c1 1 2.2 1.3 3.6 1.3 1.8 0 2.9-.8 2.9-2.2 0-.6-.2-1.1-.6-1.5-.4-.3-.7-.5-1.5-.6l-1.7-.2c-1.2-.2-2.1-.6-2.7-1.1-.7-.7-1-1.5-1-2.7 0-2.5 1.8-4.1 4.7-4.1 1.9 0 3.2.5 4.4 1.6l-1.4 1.3c-.9-.8-1.9-1.1-3.1-1.1-1.7 0-2.6 1-2.6 2.2 0 .5.2 1 .5 1.3.4.3.9.6 1.6.7l1.6.2c1.3.2 2 .5 2.6 1.1.8.7 1.2 1.7 1.2 2.9.2 2.6-2 4.2-4.9 4.2zm13.3-12.3v12.2h-2.1v-12.2H941v-1.9h9.9v1.9H947zm20.5 10.8c-1 1-2.2 1.5-3.7 1.5s-2.7-.5-3.7-1.5c-1.4-1.4-1.4-3-1.4-5.7s0-4.3 1.4-5.7c1-1 2.2-1.5 3.7-1.5s2.8.5 3.7 1.5c1.4 1.4 1.4 3 1.4 5.7s0 4.3-1.4 5.7zm-1.6-10.1c-.5-.5-1.3-.9-2.1-.9s-1.6.3-2.1.9c-.7.8-.8 1.5-.8 4.4 0 2.8.1 3.6.8 4.4.5.5 1.3.9 2.1.9s1.6-.3 2.1-.9c.7-.8.8-1.5.8-4.4 0-2.8-.1-3.6-.8-4.4zm8.8-.7v4.3h5.9v1.9h-5.9v6h-2.1v-14.1h9v1.9h-6.9zm15.4 12.2v-14.1h2.1v14.1h-2.1zm15.1 0l-6.5-9.9v9.9h-2.1v-14.1h2l6.5 9.9v-9.9h2.1v14.1h-2zm14.9 0l-6.5-9.9v9.9h-2.1v-14.1h2l6.5 9.9v-9.9h2.1v14.1h-2zm14.5-1.4c-1 1-2.2 1.5-3.7 1.5s-2.7-.5-3.7-1.5c-1.4-1.4-1.4-3-1.4-5.7s0-4.3 1.4-5.7c1-1 2.2-1.5 3.7-1.5s2.8.5 3.7 1.5c1.4 1.4 1.4 3 1.4 5.7-.1 2.7 0 4.3-1.4 5.7zm-1.6-10.1c-.5-.5-1.3-.9-2.1-.9s-1.6.3-2.1.9c-.7.8-.8 1.5-.8 4.4 0 2.8.1 3.6.8 4.4.5.5 1.3.9 2.1.9s1.6-.3 2.1-.9c.7-.8.8-1.5.8-4.4 0-2.8-.1-3.6-.8-4.4zm11 11.5h-1.7l-4.6-14.1h2.2l3.3 10.3 3.3-10.3h2.3l-4.8 14.1zm14.7 0l-1-2.8h-5.6l-1 2.8h-2.3l5.2-14.1h1.7l5.2 14.1h-2.2zm-3.7-11l-2.2 6.3h4.3l-2.1-6.3zm12.1-1.2v12.2h-2.1v-12.2h-3.9v-1.9h9.9v1.9h-3.9zm6.9 12.2v-14.1h2.1v14.1h-2.1zm14.7-1.4c-1 1-2.2 1.5-3.7 1.5s-2.7-.5-3.7-1.5c-1.4-1.4-1.4-3-1.4-5.7s0-4.3 1.4-5.7c1-1 2.2-1.5 3.7-1.5s2.8.5 3.7 1.5c1.4 1.4 1.4 3 1.4 5.7-.1 2.7 0 4.3-1.4 5.7zm-1.6-10.1c-.5-.5-1.3-.9-2.1-.9s-1.6.3-2.1.9c-.7.8-.8 1.5-.8 4.4 0 2.8.1 3.6.8 4.4.5.5 1.3.9 2.1.9s1.6-.3 2.1-.9c.7-.8.8-1.5.8-4.4 0-2.8-.1-3.6-.8-4.4zm15.4 11.5l-6.5-9.9v9.9h-2.1v-14.1h2l6.5 9.9v-9.9h2.1v14.1h-2z" transform="translate(-833.195 -454.531)"/><g class="st0"><g class="st1"><path class="st3" d="M143.7 4.2V.1h2.3v2.2l-2.3 1.9zM0 14.9V.1h2.2v12.7h7.1v2H0zm12.1 0V.1h9.4v2h-7.2v4.3h6.1v2h-6.1v4.4h7.2v2l-9.4.1zM32.3 2.1v4.5h6.1v2h-6.1v6.2H30V.1h9.4v2h-7.1zM47.4 15c-2.8.2-5.1-2-5.3-4.7V.1h2.2v9.7c-.1 1.7 1.2 3.1 2.9 3.2 1.7.1 3.1-1.2 3.2-2.9V.1h2.2v9.8c0 2.8-2.2 5.1-4.9 5.1h-.3zM62.1 2.1v12.7h-2.2V2.1h-4.1v-2h10.4v2h-4.1zM74.2 15c-2.8.2-5.1-2-5.3-4.7V.1h2.2v9.7c-.1 1.7 1.2 3.1 2.9 3.2s3.1-1.2 3.2-2.9V.1h2.2v9.8c0 2.8-2.2 5.1-4.9 5.1h-.3zm17.4-.1l-3.1-6.2h-2.8v6.2h-2.2V.1h5.7c2.3-.2 4.4 1.5 4.6 3.8v.5c.1 1.8-1.2 3.5-2.9 3.9l3.4 6.5h-2.7zM89 2.1h-3.3v4.6H89c1.3.1 2.4-.8 2.5-2.1.1-1.3-.8-2.4-2.1-2.5H89zm22.6 11.4c-1 1-2.4 1.5-3.8 1.4h-5.2V.1h5.2c1.4-.1 2.8.4 3.8 1.4 1.6 1.6 1.5 3.8 1.5 5.9s.1 4.5-1.5 6.1zm-1.5-10.4c-.6-.7-1.6-1-2.5-1h-2.7v10.7h2.7c.9.1 1.9-.3 2.5-1 .8-.9.8-2.4.8-4.5s0-3.3-.8-4.2zm6.7 11.8V.1h9.4v2H119v4.3h6.1v2H119v4.4h7.2v2l-9.4.1zm18.1 0V.1h2.2v12.7h7.1v2h-9.3zm14.9 0V.1h2.2v14.8h-2.2zm15.5 0l-6.8-10.4v10.4h-2.2V.1h2.1l6.8 10.4V.1h2.2v14.8h-2.1zm8.5-12.8v4.5h6.1v2h-6.1v6.2h-2.2V.1h9.4v2h-7.2zm18.5 11.3c-2.2 2.1-5.6 2.1-7.8 0-1.5-1.4-1.4-3.1-1.4-5.9s0-4.5 1.4-5.9c2.2-2.1 5.6-2.1 7.8 0 1.5 1.4 1.4 3.1 1.4 5.9s0 4.5-1.4 5.9zm-1.7-10.5c-1.2-1.2-3.2-1.2-4.4 0-.7.8-.9 1.6-.9 4.6s.1 3.8.9 4.6c1.2 1.2 3.2 1.2 4.4 0 .7-.8.9-1.6.9-4.6s-.2-3.8-.9-4.6zm14.9 12l-3.1-6.2h-2.8v6.2h-2.2V.1h5.7c2.3-.2 4.4 1.5 4.6 3.8v.5c.1 1.8-1.2 3.5-2.9 3.9l3.4 6.5h-2.7zm-2.6-12.8h-3.3v4.6h3.3c1.3.1 2.4-.8 2.5-2.1s-.8-2.4-2.1-2.5h-.4zm19.2 12.8V5l-3.4 7.2H217L213.6 5v9.9h-2.2V.1h2.2l4.3 9.2 4.2-9.2h2.2v14.8h-2.2zm14.9 0l-1-3h-5.8l-1 3h-2.4L232.2.1h1.8l5.4 14.8H237zm-3.8-11.4l-2.3 6.5h4.5l-2.2-6.5zm12.9-1.4v12.7h-2.2V2.1h-4.1v-2h10.4v2h-4.1zm6.8 12.8V.1h2.2v14.8h-2.2zm15.6.6L267 14c-.9.6-2 .9-3.1.9-1.5 0-2.9-.5-3.9-1.6-1.5-1.4-1.4-3.1-1.4-5.9s0-4.5 1.4-5.9c2.2-2.1 5.6-2.1 7.8 0 1.5 1.4 1.4 3.1 1.4 5.9 0 2.5 0 4-1 5.4l1.5 1.4-1.2 1.3zm-2.3-12.6c-1.2-1.2-3.2-1.2-4.4 0-.7.8-.9 1.6-.9 4.6s.1 3.8.9 4.6c.6.6 1.4.9 2.2.9.5 0 1.1-.2 1.5-.5l-1.6-1.6 1.2-1.2 1.4 1.4c.4-1.2.6-2.4.4-3.6.1-3 0-3.8-.7-4.6zM277.9 15c-2.8.2-5.1-2-5.3-4.7V.1h2.2v9.7c-.1 1.7 1.2 3.1 2.9 3.2 1.7.1 3.1-1.2 3.2-2.9V.1h2.2v9.8c0 2.8-2.2 5.1-4.9 5.1h-.3zm9.1-.1V.1h9.4v2h-7.2v4.3h6.1v2h-6.1v4.4h7.2v2l-9.4.1z" transform="translate(.185 96.711)"/><path class="st3" d="M0 14.9V.1h2.2v12.7h7.1v2l-9.3.1zm11.9 0V.1h9.4v2h-7.2v4.3h6.1v2h-6.1v4.4h7.2v2l-9.4.1zm28.2 0V5l-3.4 7.2H35L31.6 5v9.9h-2.2V.1h2.2l4.3 9.2L40.1.1h2.2v14.8h-2.2zm6.1 0V.1h9.4v2h-7.2v4.3h6.1v2h-6.1v4.4h7.2v2l-9.4.1zm13.1 0V.1h2.2v14.8h-2.2zm6.1 0V.1h2.2v12.7h7.1v2l-9.3.1zm12 0V.1h2.2v12.7h7.1v2l-9.3.1zm12.1 0V.1h9.4v2h-7.2v4.3h6.1v2h-6.1v4.4h7.2v2l-9.4.1zm17.6.1c-2.8.2-5.1-2-5.3-4.7V.1h2.2v9.7c-.1 1.7 1.2 3.1 2.9 3.2 1.7.1 3.1-1.2 3.2-2.9V.1h2.2v9.8c0 2.8-2.2 5.1-4.9 5.1h-.3zm17.2-.1l-3.1-6.2h-2.8v6.2h-2.2V.1h5.7c2.3-.2 4.4 1.5 4.6 3.8v.5c.1 1.8-1.2 3.5-2.9 3.9l3.4 6.5-2.7.1zm-2.6-12.8h-3.3v4.6h3.3c1.3.1 2.4-.8 2.5-2.1s-.8-2.4-2.1-2.5h-.4zm22.2 11.4c-1 1-2.4 1.5-3.8 1.4h-5.2V.1h5.2c1.4-.1 2.8.4 3.8 1.4 1.6 1.6 1.5 3.8 1.5 5.9s.1 4.5-1.5 6.1zm-1.5-10.4c-.6-.7-1.6-1.1-2.5-1h-2.7v10.7h2.7c.9.1 1.9-.3 2.5-1 .8-.9.8-2.4.8-4.5s-.1-3.3-.8-4.2zm6.5 11.8V.1h9.4v2h-7.2v4.3h6.1v2h-6.1v4.4h7.2v2l-9.4.1zm17.6 0V.1h2.2v12.7h7.1v2l-9.3.1zM175 4.2V.1h2.3v2.2L175 4.2zm5.9 10.7V.1h2.2v14.8h-2.2zm15.3 0l-6.8-10.4v10.4h-2.2V.1h2.1l6.8 10.4V.1h2.2v14.8h-2.1zm15.1 0l-6.8-10.4v10.4h-2.2V.1h2.1l6.8 10.4V.1h2.2v14.8h-2.1zm14.7-1.5c-2.2 2.1-5.6 2.1-7.8 0-1.5-1.4-1.4-3.1-1.4-5.9s0-4.5 1.4-5.9c2.2-2.1 5.6-2.1 7.8 0 1.5 1.4 1.4 3.1 1.4 5.9s.1 4.5-1.4 5.9zm-1.7-10.5c-1.2-1.2-3.2-1.2-4.4 0-.7.8-.9 1.6-.9 4.6s.1 3.8.9 4.6c1.2 1.2 3.2 1.2 4.4 0 .7-.8.9-1.6.9-4.6s-.2-3.8-.9-4.6zm11.1 12h-1.7L228.9.1h2.3l3.4 10.7L238 .1h2.4l-5 14.8zm15.2 0l-1-3h-5.8l-1 3h-2.4L245.8.1h1.8l5.4 14.8h-2.4zm-3.8-11.4l-2.3 6.5h4.5l-2.2-6.5zm12.1-1.4v12.7h-2.2V2.1h-4.1v-2H263v2h-4.1zm6.6 12.8V.1h2.2v14.8h-2.2zm14.7-1.5c-2.2 2.1-5.6 2.1-7.8 0-1.4-1.4-1.4-3.1-1.4-5.9s0-4.5 1.4-5.9c2.2-2.1 5.6-2.1 7.8 0 1.5 1.4 1.4 3.1 1.4 5.9s.1 4.5-1.4 5.9zm-1.7-10.5c-1.2-1.2-3.2-1.2-4.4 0-.7.8-.9 1.6-.9 4.6s.1 3.8.9 4.6c1.2 1.2 3.2 1.2 4.4 0 .7-.8.9-1.6.9-4.6s-.2-3.8-.9-4.6zm15.5 12l-6.8-10.4v10.4H285V.1h2l6.8 10.4V.1h2.2v14.8h-2z" transform="translate(0 117.588)"/></g></g></g></svg>