<svg xmlns="http://www.w3.org/2000/svg" viewBox="0 0 120 120"><path d="M108.4 116.1H11.6c-6.4 0-11.6-5.2-11.6-11.6v-89C0 9.1 5.2 3.9 11.6 3.9h96.8c6.4 0 11.6 5.2 11.6 11.6v89c0 6.4-5.2 11.6-11.6 11.6z" fill="#fceb23"/><path d="M29.9 52.4c-2.8 0-5-2.2-5-4.9v-5.6c0-2.8 2.3-5 5-5s5 2.3 5 5v5.5c0 2.8-2.2 5-4.9 5h-.1zm31.2 44.5c-4.6 0-9.2-.8-13.5-2.3-8.6-3-16.2-8.4-21.9-15.6-1.7-2.2-1.3-5.3.9-7.1 2.1-1.7 5.3-1.4 7 .8 0 0 0 .1.1.1 9 11.4 24.1 16.7 35.9 12.7 11-3.8 17-14.7 17-30.7V41.9c0-2.8 2.2-5 5-5s5 2.2 5 5v12.9c0 20.4-8.7 35-23.8 40.2-3.8 1.3-7.7 1.9-11.7 1.9z" fill="#040505"/></svg>